<svg width="18" height="18" viewBox="0 0 18 18" fill="none" xmlns="http://www.w3.org/2000/svg">
<path d="M12.198 14.7025L7.0106 9.43188C6.89683 9.31688 6.83302 9.16165 6.83302 8.99988C6.83302 8.83811 6.89683 8.68288 7.0106 8.56788L12.1969 3.29725C12.3106 3.18154 12.3743 3.0258 12.3743 2.86357C12.3743 2.70133 12.3106 2.54559 12.1969 2.42988C12.1413 2.3729 12.0749 2.32762 12.0016 2.2967C11.9283 2.26578 11.8495 2.24985 11.7699 2.24985C11.6903 2.24985 11.6116 2.26578 11.5382 2.2967C11.4649 2.32762 11.3985 2.3729 11.343 2.42988L6.15673 7.69938C5.81593 8.04647 5.625 8.51346 5.625 8.99988C5.625 9.4863 5.81593 9.95329 6.15673 10.3004L11.343 15.5699C11.3985 15.627 11.465 15.6725 11.5384 15.7035C11.6119 15.7345 11.6908 15.7505 11.7705 15.7505C11.8502 15.7505 11.9291 15.7345 12.0025 15.7035C12.0759 15.6725 12.1424 15.627 12.198 15.5699C12.3117 15.4542 12.3754 15.2984 12.3754 15.1362C12.3754 14.974 12.3117 14.8182 12.198 14.7025Z" fill="#808080"/>
</svg>
