<svg width="8" height="14" viewBox="0 0 8 14" fill="none" xmlns="http://www.w3.org/2000/svg">
<path d="M7.19798 12.7025L2.0106 7.43188C1.89683 7.31688 1.83302 7.16165 1.83302 6.99988C1.83302 6.83811 1.89683 6.68288 2.0106 6.56788L7.19685 1.29725C7.31056 1.18154 7.37428 1.0258 7.37428 0.863567C7.37428 0.701335 7.31056 0.545592 7.19685 0.42988C7.1413 0.3729 7.07491 0.327617 7.00159 0.296698C6.92826 0.265779 6.84949 0.249849 6.76991 0.249849C6.69034 0.249848 6.61157 0.265779 6.53824 0.296698C6.46492 0.327617 6.39853 0.3729 6.34298 0.42988L1.15673 5.69938C0.815934 6.04647 0.625 6.51346 0.625 6.99988C0.625 7.4863 0.815934 7.95329 1.15673 8.30038L6.34298 13.5699C6.39854 13.627 6.465 13.6725 6.53843 13.7035C6.61186 13.7345 6.69076 13.7505 6.77048 13.7505C6.85019 13.7505 6.92909 13.7345 7.00252 13.7035C7.07595 13.6725 7.14241 13.627 7.19798 13.5699C7.31169 13.4542 7.3754 13.2984 7.3754 13.1362C7.3754 12.974 7.31169 12.8182 7.19798 12.7025Z" fill="#808080"/>
</svg>
