<svg width="26" height="26" viewBox="0 0 26 26" fill="none" xmlns="http://www.w3.org/2000/svg">
<path d="M23.8337 5.05917V18.135C23.8337 19.175 22.9887 20.15 21.9487 20.28L21.5912 20.3234C19.2295 20.6375 15.5895 21.84 13.5095 22.9883C13.2278 23.1508 12.762 23.1508 12.4695 22.9883L12.4261 22.9667C10.3461 21.8292 6.71702 20.6375 4.36619 20.3234L4.05198 20.28C3.01198 20.15 2.16699 19.175 2.16699 18.135V5.04832C2.16699 3.75916 3.2178 2.78417 4.50696 2.8925C6.78196 3.07667 10.227 4.22503 12.1553 5.42753L12.4261 5.58999C12.7403 5.78499 13.2604 5.78499 13.5745 5.58999L13.7587 5.47084C14.4412 5.04834 15.3078 4.62583 16.2503 4.24667V8.66669L18.417 7.22583L20.5837 8.66669V3.01172C20.8762 2.95755 21.1578 2.92501 21.4178 2.90335H21.4828C22.772 2.79501 23.8337 3.75917 23.8337 5.05917Z" stroke="black" stroke-width="0.8" stroke-linecap="round" stroke-linejoin="round"/>
<path d="M13 5.94751V22.1975" stroke="black" stroke-width="0.8" stroke-linecap="round" stroke-linejoin="round"/>
<path d="M20.5833 3.01172V8.66669L18.4167 7.22584L16.25 8.66669V4.24667C17.6692 3.68334 19.2508 3.22839 20.5833 3.01172Z" stroke="black" stroke-width="0.8" stroke-linecap="round" stroke-linejoin="round"/>
</svg>
