<svg width="26" height="26" viewBox="0 0 26 26" fill="none" xmlns="http://www.w3.org/2000/svg">
<path d="M2.14551 14.0833H6.25134C7.07467 14.0833 7.82217 14.5492 8.19051 15.2858L9.15467 17.225C9.75051 18.4167 10.8338 18.4167 11.0938 18.4167H14.918C15.7413 18.4167 16.4888 17.9508 16.8572 17.2142L17.8213 15.275C18.1897 14.5383 18.9372 14.0725 19.7605 14.0725H23.8122" stroke="#292D32" stroke-linecap="round" stroke-linejoin="round"/>
<path d="M20.583 8.66675C22.3779 8.66675 23.833 7.21167 23.833 5.41675C23.833 3.62182 22.3779 2.16675 20.583 2.16675C18.7881 2.16675 17.333 3.62182 17.333 5.41675C17.333 7.21167 18.7881 8.66675 20.583 8.66675Z" stroke="#292D32" stroke-linecap="round" stroke-linejoin="round"/>
<path d="M15.167 2.16675H9.75033C4.33366 2.16675 2.16699 4.33341 2.16699 9.75008V16.2501C2.16699 21.6667 4.33366 23.8334 9.75033 23.8334H16.2503C21.667 23.8334 23.8337 21.6667 23.8337 16.2501V10.8334" stroke="#292D32" stroke-linecap="round" stroke-linejoin="round"/>
</svg>
