<svg width="25" height="25" viewBox="0 0 25 25" fill="none" xmlns="http://www.w3.org/2000/svg">
<path d="M18.4002 2.6L8.47019 5.09C7.02019 5.45 5.55019 6.92 5.19019 8.37L2.70019 18.3C1.95019 21.3 3.79019 23.15 6.80019 22.4L16.7302 19.92C18.1702 19.56 19.6502 18.08 20.0102 16.64L22.5002 6.7C23.2502 3.7 21.4002 1.85 18.4002 2.6Z" stroke="#808080" stroke-width="1.5" stroke-linecap="round" stroke-linejoin="round"/>
<path d="M12.6001 16C14.5331 16 16.1001 14.433 16.1001 12.5C16.1001 10.567 14.5331 9 12.6001 9C10.6671 9 9.1001 10.567 9.1001 12.5C9.1001 14.433 10.6671 16 12.6001 16Z" stroke="#808080" stroke-width="1.5" stroke-linecap="round" stroke-linejoin="round"/>
</svg>
