<svg width="25" height="25" viewBox="0 0 25 25" fill="none" xmlns="http://www.w3.org/2000/svg">
<path d="M21.63 8.51002L15.08 3.27002C13.8 2.25002 11.8 2.24002 10.53 3.26002L3.98001 8.51002C3.04001 9.26002 2.47001 10.76 2.67001 11.94L3.93001 19.48C4.22001 21.17 5.79001 22.5 7.50001 22.5H18.1C19.79 22.5 21.39 21.14 21.68 19.47L22.94 11.93C23.12 10.76 22.55 9.26002 21.63 8.51002ZM13.55 18.5C13.55 18.91 13.21 19.25 12.8 19.25C12.39 19.25 12.05 18.91 12.05 18.5V15.5C12.05 15.09 12.39 14.75 12.8 14.75C13.21 14.75 13.55 15.09 13.55 15.5V18.5Z" fill="#001AA4"/>
</svg>
