<svg width="25" height="25" viewBox="0 0 25 25" fill="none" xmlns="http://www.w3.org/2000/svg">
<path d="M10.9053 3.72819L10.9057 3.72782C11.9528 2.88683 13.6411 2.89096 14.7057 3.73893C14.7058 3.73904 14.706 3.73915 14.7061 3.73925L21.2509 8.97507C21.2516 8.97561 21.2522 8.97616 21.2529 8.9767C21.6136 9.27151 21.9311 9.7378 22.137 10.2767C22.3428 10.8151 22.4175 11.3749 22.3475 11.8353L21.0889 19.3674C21.0888 19.368 21.0887 19.3686 21.0885 19.3691C20.847 20.7546 19.4939 21.9 18.1 21.9H7.50001C6.08465 21.9 4.76307 20.7832 4.52158 19.3798C4.52151 19.3794 4.52144 19.379 4.52137 19.3785L3.26181 11.8411L3.26157 11.8398C3.183 11.3762 3.25297 10.8155 3.45813 10.2776C3.66327 9.73962 3.98464 9.27391 4.35422 8.97903L4.35526 8.97819L10.9053 3.72819ZM12.8 19.85C13.5414 19.85 14.15 19.2414 14.15 18.5V15.5C14.15 14.7586 13.5414 14.15 12.8 14.15C12.0586 14.15 11.45 14.7586 11.45 15.5V18.5C11.45 19.2414 12.0586 19.85 12.8 19.85Z" stroke="#808080" stroke-width="1.2"/>
</svg>
