<svg width="26" height="26" viewBox="0 0 26 26" fill="none" xmlns="http://www.w3.org/2000/svg">
<path d="M21.4384 16.1742C19.2067 18.395 16.0109 19.0775 13.2051 18.2L8.10256 23.2917C7.73422 23.6708 7.00839 23.8983 6.48839 23.8225L4.12672 23.4975C3.34672 23.3892 2.62089 22.6525 2.50172 21.8725L2.17672 19.5108C2.10089 18.9908 2.35006 18.265 2.70756 17.8967L7.79922 12.805C6.93256 9.98835 7.60422 6.79251 9.83589 4.57168C13.0317 1.37585 18.2209 1.37585 21.4276 4.57168C24.6342 7.76751 24.6342 12.9783 21.4384 16.1742Z" stroke="black" stroke-miterlimit="10" stroke-linecap="round" stroke-linejoin="round"/>
<path d="M7.46387 18.9475L9.95553 21.4392" stroke="black" stroke-miterlimit="10" stroke-linecap="round" stroke-linejoin="round"/>
<path d="M15.708 11.9167C16.6055 11.9167 17.333 11.1892 17.333 10.2917C17.333 9.39429 16.6055 8.66675 15.708 8.66675C14.8105 8.66675 14.083 9.39429 14.083 10.2917C14.083 11.1892 14.8105 11.9167 15.708 11.9167Z" stroke="black" stroke-linecap="round" stroke-linejoin="round"/>
</svg>
