<svg width="18" height="18" viewBox="0 0 18 18" fill="none" xmlns="http://www.w3.org/2000/svg">
<path d="M5.61035 13.7624L7.93535 15.5624C8.23535 15.8624 8.91035 16.0124 9.36035 16.0124H12.2104C13.1104 16.0124 14.0854 15.3374 14.3104 14.4374L16.1104 8.96235C16.4854 7.91235 15.8104 7.01235 14.6854 7.01235H11.6854C11.2354 7.01235 10.8604 6.63735 10.9354 6.11235L11.3104 3.71235C11.4604 3.03735 11.0104 2.28735 10.3354 2.06235C9.73535 1.83735 8.98535 2.13735 8.68535 2.58735L5.61035 7.16235" stroke="#292D32" stroke-width="1.125" stroke-miterlimit="10"/>
<path d="M1.78516 13.7623V6.4123C1.78516 5.3623 2.23516 4.9873 3.28516 4.9873H4.03516C5.08516 4.9873 5.53516 5.3623 5.53516 6.4123V13.7623C5.53516 14.8123 5.08516 15.1873 4.03516 15.1873H3.28516C2.23516 15.1873 1.78516 14.8123 1.78516 13.7623Z" stroke="#292D32" stroke-width="1.125" stroke-linecap="round" stroke-linejoin="round"/>
</svg>
