<svg width="25" height="25" viewBox="0 0 25 25" fill="none" xmlns="http://www.w3.org/2000/svg">
<path d="M18.3802 11.29V15.29C18.3802 15.55 18.3701 15.8 18.3401 16.04C18.1101 18.74 16.5201 20.08 13.5901 20.08H13.1902C12.9402 20.08 12.7001 20.2 12.5501 20.4L11.3502 22C10.8202 22.71 9.96015 22.71 9.43015 22L8.23013 20.4C8.10013 20.23 7.81015 20.08 7.59015 20.08H7.19016C4.00015 20.08 2.40015 19.29 2.40015 15.29V11.29C2.40015 8.36001 3.75015 6.77001 6.44016 6.54001C6.68016 6.51001 6.93016 6.5 7.19016 6.5H13.5901C16.7801 6.5 18.3802 8.10001 18.3802 11.29Z" stroke="#808080" stroke-width="1.5" stroke-miterlimit="10" stroke-linecap="round" stroke-linejoin="round"/>
<path d="M22.3802 7.29001V11.29C22.3802 14.23 21.0302 15.81 18.3402 16.04C18.3702 15.8 18.3802 15.55 18.3802 15.29V11.29C18.3802 8.10001 16.7802 6.5 13.5902 6.5H7.19019C6.93019 6.5 6.68019 6.51001 6.44019 6.54001C6.67019 3.85001 8.26019 2.5 11.1902 2.5H17.5902C20.7802 2.5 22.3802 4.10001 22.3802 7.29001Z" stroke="#808080" stroke-width="1.5" stroke-miterlimit="10" stroke-linecap="round" stroke-linejoin="round"/>
<path d="M13.8956 13.75H13.9046" stroke="#808080" stroke-width="2" stroke-linecap="round" stroke-linejoin="round"/>
<path d="M10.3956 13.75H10.4046" stroke="#808080" stroke-width="2" stroke-linecap="round" stroke-linejoin="round"/>
<path d="M6.89565 13.75H6.90465" stroke="#808080" stroke-width="2" stroke-linecap="round" stroke-linejoin="round"/>
</svg>
