<svg width="19" height="19" viewBox="0 0 19 19" fill="none" xmlns="http://www.w3.org/2000/svg">
<path d="M15.2025 6.30154L9.93188 11.4889C9.81688 11.6027 9.66165 11.6665 9.49988 11.6665C9.33811 11.6665 9.18288 11.6027 9.06788 11.4889L3.79725 6.30266C3.68154 6.18895 3.5258 6.12524 3.36357 6.12523C3.20133 6.12524 3.04559 6.18895 2.92988 6.30266C2.8729 6.35821 2.82762 6.4246 2.7967 6.49793C2.76578 6.57125 2.74985 6.65002 2.74985 6.7296C2.74985 6.80918 2.76578 6.88795 2.7967 6.96127C2.82762 7.03459 2.8729 7.10099 2.92988 7.15654L8.19938 12.3428C8.54647 12.6836 9.01346 12.8745 9.49988 12.8745C9.9863 12.8745 10.4533 12.6836 10.8004 12.3428L16.0699 7.15654C16.127 7.10097 16.1725 7.03451 16.2035 6.96108C16.2345 6.88765 16.2505 6.80875 16.2505 6.72904C16.2505 6.64932 16.2345 6.57042 16.2035 6.49699C16.1725 6.42357 16.127 6.3571 16.0699 6.30154C15.9542 6.18783 15.7984 6.12411 15.6362 6.12411C15.474 6.12411 15.3182 6.18783 15.2025 6.30154Z" fill="white"/>
</svg>
