<svg width="19" height="19" viewBox="0 0 19 19" fill="none" xmlns="http://www.w3.org/2000/svg">
<path d="M3.7975 12.6985L9.06812 7.51109C9.18312 7.39732 9.33835 7.33351 9.50012 7.33351C9.66189 7.33351 9.81712 7.39732 9.93212 7.51109L15.2027 12.6973C15.3185 12.811 15.4742 12.8748 15.6364 12.8748C15.7987 12.8748 15.9544 12.811 16.0701 12.6973C16.1271 12.6418 16.1724 12.5754 16.2033 12.5021C16.2342 12.4287 16.2502 12.35 16.2502 12.2704C16.2502 12.1908 16.2342 12.1121 16.2033 12.0387C16.1724 11.9654 16.1271 11.899 16.0701 11.8435L10.8006 6.65721C10.4535 6.31642 9.98654 6.12549 9.50012 6.12549C9.0137 6.12549 8.54671 6.31642 8.19962 6.65721L2.93012 11.8435C2.87297 11.899 2.82754 11.9655 2.79652 12.0389C2.7655 12.1123 2.74951 12.1913 2.74951 12.271C2.74951 12.3507 2.7655 12.4296 2.79652 12.503C2.82754 12.5764 2.87297 12.6429 2.93012 12.6985C3.04583 12.8122 3.20158 12.8759 3.36381 12.8759C3.52604 12.8759 3.68178 12.8122 3.7975 12.6985Z" fill="white"/>
</svg>
