<svg width="10" height="11" viewBox="0 0 10 11" fill="none" xmlns="http://www.w3.org/2000/svg">
<path d="M5.46924 7.61621C5.46924 7.70892 5.44175 7.79955 5.39024 7.87663C5.33873 7.95372 5.26553 8.0138 5.17987 8.04928C5.09422 8.08476 4.99997 8.09404 4.90904 8.07595C4.81811 8.05787 4.73459 8.01322 4.66903 7.94767C4.60348 7.88211 4.55883 7.79859 4.54075 7.70766C4.52266 7.61673 4.53194 7.52248 4.56742 7.43683C4.6029 7.35118 4.66298 7.27797 4.74007 7.22646C4.81715 7.17495 4.90778 7.14746 5.00049 7.14746C5.12481 7.14746 5.24404 7.19685 5.33195 7.28475C5.41985 7.37266 5.46924 7.49189 5.46924 7.61621ZM5.00049 3.39746C4.13877 3.39746 3.43799 4.02832 3.43799 4.80371V4.95996C3.43799 5.04284 3.47091 5.12233 3.52952 5.18093C3.58812 5.23954 3.66761 5.27246 3.75049 5.27246C3.83337 5.27246 3.91286 5.23954 3.97146 5.18093C4.03007 5.12233 4.06299 5.04284 4.06299 4.95996V4.80371C4.06299 4.37402 4.48369 4.02246 5.00049 4.02246C5.51729 4.02246 5.93799 4.37402 5.93799 4.80371C5.93799 5.2334 5.51729 5.58496 5.00049 5.58496C4.91761 5.58496 4.83812 5.61788 4.77952 5.67649C4.72091 5.7351 4.68799 5.81458 4.68799 5.89746V6.20996C4.68799 6.29284 4.72091 6.37233 4.77952 6.43093C4.83812 6.48954 4.91761 6.52246 5.00049 6.52246C5.08337 6.52246 5.16286 6.48954 5.22146 6.43093C5.28007 6.37233 5.31299 6.29284 5.31299 6.20996V6.18184C6.02549 6.05098 6.56299 5.48262 6.56299 4.80371C6.56299 4.02832 5.86221 3.39746 5.00049 3.39746ZM9.06299 5.58496C9.06299 6.38845 8.82473 7.17389 8.37834 7.84196C7.93194 8.51004 7.29747 9.03074 6.55514 9.33822C5.81282 9.6457 4.99598 9.72615 4.20794 9.5694C3.41989 9.41265 2.69602 9.02573 2.12787 8.45758C1.55972 7.88943 1.1728 7.16556 1.01605 6.37752C0.859297 5.58947 0.939748 4.77263 1.24723 4.03031C1.55471 3.28798 2.07541 2.65351 2.74349 2.20712C3.41156 1.76072 4.197 1.52246 5.00049 1.52246C6.07758 1.5236 7.11023 1.95198 7.87185 2.7136C8.63348 3.47522 9.06185 4.50787 9.06299 5.58496ZM8.43799 5.58496C8.43799 4.90509 8.23638 4.24048 7.85867 3.67519C7.48095 3.10989 6.94409 2.6693 6.31596 2.40913C5.68784 2.14895 4.99668 2.08087 4.32987 2.21351C3.66306 2.34615 3.05055 2.67354 2.56981 3.15428C2.08907 3.63502 1.76168 4.24753 1.62904 4.91434C1.4964 5.58115 1.56448 6.27231 1.82465 6.90044C2.08483 7.52856 2.52542 8.06542 3.09072 8.44314C3.65601 8.82086 4.32062 9.02246 5.00049 9.02246C5.91185 9.02143 6.7856 8.65893 7.43003 8.0145C8.07446 7.37007 8.43696 6.49633 8.43799 5.58496Z" fill="#080357"/>
</svg>
