<svg width="24" height="25" viewBox="0 0 24 25" fill="none" xmlns="http://www.w3.org/2000/svg">
<path d="M12.0048 6.60266C13.0836 6.60266 13.9582 5.72805 13.9582 4.64917C13.9582 3.57029 13.0836 2.69568 12.0048 2.69568C10.9259 2.69568 10.0513 3.57029 10.0513 4.64917C10.0513 5.72805 10.9259 6.60266 12.0048 6.60266Z" fill="black"/>
<path d="M12.0048 13.9825C13.0836 13.9825 13.9582 13.1079 13.9582 12.029C13.9582 10.9502 13.0836 10.0756 12.0048 10.0756C10.9259 10.0756 10.0513 10.9502 10.0513 12.029C10.0513 13.1079 10.9259 13.9825 12.0048 13.9825Z" fill="black"/>
<path d="M12.0048 21.3624C13.0836 21.3624 13.9582 20.4878 13.9582 19.4089C13.9582 18.3301 13.0836 17.4554 12.0048 17.4554C10.9259 17.4554 10.0513 18.3301 10.0513 19.4089C10.0513 20.4878 10.9259 21.3624 12.0048 21.3624Z" fill="black"/>
</svg>
