<svg width="12" height="11" viewBox="0 0 12 11" fill="none" xmlns="http://www.w3.org/2000/svg">
<path d="M6.72775 2.01307L7.46821 3.49399C7.56918 3.70014 7.83844 3.89788 8.06562 3.93574L9.4077 4.15872C10.266 4.30176 10.4679 4.92442 9.84945 5.53866L8.80608 6.58204C8.62938 6.75874 8.53262 7.09952 8.58731 7.34353L8.88602 8.63513C9.12162 9.65746 8.57889 10.0529 7.67436 9.51863L6.41642 8.77396C6.18923 8.63933 5.8148 8.63933 5.5834 8.77396L4.32547 9.51863C3.42514 10.0529 2.87821 9.65326 3.11381 8.63513L3.41252 7.34353C3.46721 7.09952 3.37044 6.75874 3.19374 6.58204L2.15037 5.53866C1.53613 4.92442 1.73386 4.30176 2.59212 4.15872L3.9342 3.93574C4.15718 3.89788 4.42644 3.70014 4.52741 3.49399L5.26787 2.01307C5.67176 1.20951 6.32807 1.20951 6.72775 2.01307Z" fill="#FF9529"/>
</svg>
