<svg width="26" height="26" viewBox="0 0 26 26" fill="none" xmlns="http://www.w3.org/2000/svg">
<path d="M12.9987 13.0001C15.9902 13.0001 18.4154 10.575 18.4154 7.58341C18.4154 4.59187 15.9902 2.16675 12.9987 2.16675C10.0072 2.16675 7.58203 4.59187 7.58203 7.58341C7.58203 10.575 10.0072 13.0001 12.9987 13.0001Z" stroke="black" stroke-width="0.8" stroke-linecap="round" stroke-linejoin="round"/>
<path d="M20.8094 17.0517L16.9743 20.8867C16.8226 21.0384 16.6818 21.32 16.6493 21.5259L16.4435 22.9883C16.3677 23.5192 16.736 23.8875 17.2668 23.8117L18.7293 23.6058C18.9351 23.5733 19.2277 23.4325 19.3685 23.2809L23.2035 19.4459C23.8643 18.785 24.1785 18.0158 23.2035 17.0408C22.2393 16.0767 21.4702 16.3909 20.8094 17.0517Z" stroke="black" stroke-width="0.8" stroke-miterlimit="10" stroke-linecap="round" stroke-linejoin="round"/>
<path d="M20.2568 17.6042C20.5818 18.7742 21.4918 19.6842 22.6618 20.0092" stroke="black" stroke-width="0.8" stroke-miterlimit="10" stroke-linecap="round" stroke-linejoin="round"/>
<path d="M3.69336 23.8333C3.69336 19.6408 7.86422 16.25 12.9992 16.25C14.1259 16.25 15.2092 16.4125 16.2167 16.7158" stroke="black" stroke-width="0.8" stroke-linecap="round" stroke-linejoin="round"/>
</svg>
